<svg xmlns="http://www.w3.org/2000/svg" width="45.112" height="98.499" viewBox="0 0 45.112 98.499">
  <g id="aside-chevron" transform="translate(-707 -1693.5)">
    <path id="Path_26" data-name="Path 26" d="M29,0c6.328,0,11.907.188,14.73,3.3a6.522,6.522,0,0,1,1.383,4.453V50.619C43.444,56.678,38.017,57,29,57A28.753,28.753,0,0,1,0,28.5,28.753,28.753,0,0,1,29,0Z" transform="translate(707 1714)" fill="#3c3f51"/>
    <path id="Path_27" data-name="Path 27" d="M2.152-.617s.94,8.44,6.377,14.508S23,20,23,20H-4.5Z" transform="translate(732.112 1716.5) rotate(-90)" fill="#3c3f51"/>
    <path id="Path_28" data-name="Path 28" d="M16.524-.551A23.633,23.633,0,0,1,9.971,11.64C4.533,16.767-4.5,16.8-4.5,16.8H23Z" transform="translate(735.311 1787.5) rotate(-90)" fill="#3c3f51"/>
    <path id="chevron-double-left" d="M9.707,15.707a1,1,0,0,1-1.414,0l-5-5a1,1,0,0,1,0-1.414l5-5A1,1,0,1,1,9.707,5.707L5.414,10l4.293,4.293a1,1,0,0,1,0,1.414Z" transform="translate(723 1733)" fill="#fff" fill-rule="evenodd"/>
  </g>
</svg>
