<svg xmlns="http://www.w3.org/2000/svg" width="1059.031" height="1176.699" viewBox="0 0 1059.031 1176.699">
  <g id="bell" transform="translate(-42.666 -117.671)">
    <g id="Group_22" data-name="Group 22" transform="translate(42.666)">
      <path id="Path_23" data-name="Path 23" d="M1063.779,932.656c-33.671-50.246-79.75-119.05-79.75-314.888V529.515c0-186.191-124.287-343.716-294.176-394.5h0c-47.183-11.2-52.8-17.347-117.668-17.347s-80.165,8.865-117.671,17.347l-6.6,3.733C278.026,189.532,160.337,343.325,160.337,529.515v88.253c0,195.838-46.079,264.642-79.75,314.888-19.479,29.1-37.921,56.595-37.921,96.956,0,95.906,199.933,129.56,362.031,141.152,22.728,72.761,89.444,123.606,167.484,123.606s144.756-50.844,167.484-123.606c162.1-11.591,362.031-45.246,362.031-141.152C1101.7,989.251,1083.255,961.757,1063.779,932.656ZM513.35,122.37c-38.3,6.2,26.374-4.7,58.834-4.7s19.59.722,58.834,4.7h0a411.432,411.432,0,0,0-58.834-4.7,411.434,411.434,0,0,0-58.834,4.7h0Zm58.834,1113.166a116.643,116.643,0,0,1-102.651-61.079c41.686,1.76,77.883,2.245,102.652,2.245s60.969-.485,102.657-2.245A116.655,116.655,0,0,1,572.184,1235.536Zm0-117.671c-269.413,0-470.681-46.6-470.681-88.253,0-21.517,9.079-36.026,27.982-64.207,35.679-53.318,89.689-133.9,89.689-347.638V529.515c0-194.66,158.35-353.01,353.01-353.01s353.01,158.35,353.01,353.01v88.253c0,213.737,54.008,294.32,89.689,347.638,18.9,28.183,27.982,42.689,27.982,64.207C1042.863,1071.27,841.594,1117.865,572.184,1117.865Z" transform="translate(-42.666)"/>
    </g>
  </g>
</svg>
